{
  "asset": {
    "version": "2.0",
    "generator": "RepoSphereExplorer sample generator 0.6.0",
    "copyright": "Public domain sample geometry"
  },
  "scene": 0,
  "scenes": [
    {
      "name": "Sample scene",
      "nodes": [
        0,
        1
      ]
    }
  ],
  "nodes": [
    {
      "name": "Cube",
      "mesh": 0,
      "translation": [
        -1.5,
        0.0,
        0.0
      ]
    },
    {
      "name": "Pyramid",
      "mesh": 1,
      "translation": [
        1.5,
        0.0,
        0.0
      ],
      "scale": [
        0.9,
        0.9,
        0.9
      ]
    }
  ],
  "meshes": [
    {
      "name": "Cube",
      "primitives": [
        {
          "attributes": {
            "POSITION": 0
          },
          "indices": 1,
          "material": 0
        }
      ]
    },
    {
      "name": "Pyramid",
      "primitives": [
        {
          "attributes": {
            "POSITION": 2
          },
          "indices": 3,
          "material": 1
        }
      ]
    }
  ],
  "materials": [
    {
      "name": "Blue",
      "pbrMetallicRoughness": {
        "baseColorFactor": [
          0.15,
          0.38,
          0.78,
          1.0
        ],
        "roughnessFactor": 0.6
      }
    },
    {
      "name": "Amber",
      "pbrMetallicRoughness": {
        "baseColorFactor": [
          0.92,
          0.63,
          0.13,
          1.0
        ],
        "metallicFactor": 0.2
      }
    }
  ],
  "accessors": [
    {
      "bufferView": 0,
      "componentType": 5126,
      "count": 8,
      "type": "VEC3",
      "min": [
        -1.0,
        -1.0,
        -1.0
      ],
      "max": [
        1.0,
        1.0,
        1.0
      ]
    },
    {
      "bufferView": 1,
      "componentType": 5123,
      "count": 36,
      "type": "SCALAR"
    },
    {
      "bufferView": 2,
      "componentType": 5126,
      "count": 5,
      "type": "VEC3",
      "min": [
        -1.0,
        0.0,
        -1.0
      ],
      "max": [
        1.0,
        1.6,
        1.0
      ]
    },
    {
      "bufferView": 3,
      "componentType": 5123,
      "count": 18,
      "type": "SCALAR"
    }
  ],
  "bufferViews": [
    {
      "buffer": 0,
      "byteOffset": 0,
      "byteLength": 96,
      "target": 34962
    },
    {
      "buffer": 0,
      "byteOffset": 96,
      "byteLength": 72,
      "target": 34963
    },
    {
      "buffer": 0,
      "byteOffset": 168,
      "byteLength": 60,
      "target": 34962
    },
    {
      "buffer": 0,
      "byteOffset": 228,
      "byteLength": 36,
      "target": 34963
    }
  ],
  "buffers": [
    {
      "byteLength": 264,
      "uri": "data:application/octet-stream;base64,"
    }
  ]
}
